<?xml version="1.0" encoding="UTF-8" standalone="no"?>
<svg
   xmlns:dc="http://purl.org/dc/elements/1.1/"
   xmlns:cc="http://creativecommons.org/ns#"
   xmlns:rdf="http://www.w3.org/1999/02/22-rdf-syntax-ns#"
   xmlns:svg="http://www.w3.org/2000/svg"
   xmlns="http://www.w3.org/2000/svg"
   version="1.1"
   id="svg2"
   viewBox="0 0 108.41527 114.63597"
   height="32.352818mm"
   width="30.597198mm">
  <defs
     id="defs4" />
  <metadata
     id="metadata7">
    <rdf:RDF>
      <cc:Work
         rdf:about="">
        <dc:format>image/svg+xml</dc:format>
        <dc:type
           rdf:resource="http://purl.org/dc/dcmitype/StillImage" />
        <dc:title></dc:title>
      </cc:Work>
    </rdf:RDF>
  </metadata>
  <g
     transform="translate(-194.60515,-410.9405)"
     id="layer1">
    <path
       id="path4255"
       d="m 245.78193,519.44294 c 0.64039,-9.81281 5.25165,-18.00663 16.4904,-29.30206 8.22082,-8.26228 9.46083,-9.96514 9.97194,-13.69407 l 0.58368,-4.25848 5.29104,-0.66107 5.29104,-0.66107 9.8052,6.83624 9.80519,6.83625 -4.97449,0.77906 c -7.48701,1.17256 -18.5343,3.89974 -22.47449,5.54814 l -3.5,1.46425 5.25,2.57999 c 2.8875,1.419 5.25,2.88684 5.25,3.26188 0,0.37504 -1.48091,0.95971 -3.29092,1.29927 -10.19251,1.91213 -24.72462,12.05293 -30.96097,21.6052 l -2.9379,4.5 0.40028,-6.13353 z m -12.21049,-10.34787 c -5.225,-2.68389 -12.14244,-5.88644 -15.37209,-7.11678 l -5.87208,-2.23698 4.79954,-4.16373 c 2.63975,-2.29005 4.38219,-4.40953 3.87209,-4.70995 -1.86347,-1.09749 -13.10265,-4.06021 -19.6606,-5.18267 l -6.73315,-1.15244 7.98706,-6.78871 c 7.86077,-6.68137 8.05716,-6.7782 12.42077,-6.12384 4.3476,0.65197 4.52716,0.8323 9.24608,9.28591 3.30335,5.91771 7.41877,11.26401 13.12429,17.04964 8.13228,8.24645 8.29787,8.51171 7.6621,12.27477 -0.35739,2.1154 -0.94775,3.82332 -1.31191,3.79538 -0.36415,-0.0279 -4.9371,-2.24671 -10.1621,-4.9306 z m -3.643,-28.01018 c -2.22325,-0.89719 -5.3569,-4.68822 -5.35713,-6.48093 -8e-5,-0.67145 7.44578,-1.02749 21.48781,-1.02749 21.0187,0 21.475,0.0437 20.89562,2 -1.00687,3.39979 -3.91557,5.62758 -8.07628,6.18565 -3.43646,0.46092 -4.47519,0.10559 -7.52876,-2.57548 -4.41262,-3.87433 -6.12332,-3.8924 -10.43104,-0.11017 -3.48332,3.0584 -6.85948,3.67538 -10.99022,2.00842 z m 0.34191,-11.09181 c -17.62883,-1.65776 -34.19891,-6.24746 -34.19891,-9.47266 0,-1.58427 8.50205,-5.24723 18.10891,-7.80191 8.64725,-2.2995 9.38214,-2.346 14.5,-0.9175 7.13801,1.99237 27.55175,2.0194 34.60558,0.0458 4.87535,-1.36406 5.81842,-1.30693 14.5,0.87842 13.8643,3.48997 19.607,6.21302 18.13288,8.59819 -3.59608,5.81859 -42.01414,10.89214 -65.64846,8.66965 z m 10.30109,-26.47251 c -0.825,-0.17815 -4.5375,-0.61176 -8.25,-0.9636 -6.49157,-0.6152 -6.74965,-0.74193 -6.74094,-3.31009 0.0121,-3.55417 4.56751,-23.51071 5.9612,-26.11484 1.54535,-2.88752 4.17442,-2.55776 7.52974,0.94443 3.75168,3.91591 6.58101,3.79332 12.24376,-0.53052 5.38744,-4.11361 6.12293,-3.76985 8.62337,4.03052 2.33533,7.28528 5.49751,23.46562 4.68421,23.96827 -2.56176,1.58326 -19.4459,2.97029 -24.05134,1.97583 z"
       style="fill:#000000" />
    <path
       id="path4257"
       d="m 222.5,451.64792 c 0,0 0,0 0,0 z"
       style="fill:none;fill-rule:evenodd;stroke:#000000;stroke-width:1px;stroke-linecap:butt;stroke-linejoin:miter;stroke-opacity:1" />
  </g>
</svg>
